<svg xmlns="http://www.w3.org/2000/svg" viewBox="0 0 90 90">

  <path d="M 66.3,2.1
    C 71.9,7.2 68.8,15.3 59.6,20.1
    C 56.5,21.6 54.2,22.3 50.2,22.2
    C 47.7,22.1 44.9,20.7 44.9,20.7
    C 44.9,38.8 45.0,73.0 45.0,65.4
    C 50.2,65.4 57.8,62.1 61.0,58.3
    C 65.0,53.8 67.5,45.2 66.6,39.1
    C 65.9,34.1 63.1,28.1 61.1,22.5
    C 62.5,21.9 69.0,37.7 69.1,45.1
    C 69.1,53.0 66.5,58.9 57.6,68.8
    C 50.6,76.5 49.2,79.0 45.0,85.3
    C 45.1,85.9 45.1,86.4 45.0,89.9
    C 44.0,89.8 43.3,89.9 41.9,89.9
    C 41.9,88.9 41.9,88.1 41.9,87.3

    C 41.9,65.4 42.0,29.0 42.0,15.2
    C 42.0,12.9 44.1,8.8 45.3,7.4
    C 50.8,0.8 61.5,-2.2 66.3,2.1 z" />

</svg>